<svg width="50" height="50" viewBox="0 0 50 50" fill="none" xmlns="http://www.w3.org/2000/svg">
<rect width="50" height="50" rx="10" fill="#121E78"/>
<path d="M35.4166 22.5104C35.4166 21.7896 35.4166 21.4292 35.5249 21.1084C35.8395 20.175 36.6708 19.8146 37.5041 19.4354C38.4374 19.0084 38.9041 18.7959 39.3687 18.7584C39.8937 18.7167 40.4208 18.8292 40.8708 19.0813C41.4666 19.4146 41.8833 20.0521 42.3083 20.5688C44.2728 22.9563 45.2562 24.15 45.6145 25.4646C45.9062 26.5271 45.9062 27.6396 45.6145 28.7C45.0916 30.6209 43.4353 32.2292 42.2083 33.7209C41.5812 34.4813 41.2666 34.8625 40.8708 35.0854C40.413 35.3393 39.8903 35.4517 39.3687 35.4084C38.9041 35.3709 38.4374 35.1584 37.502 34.7313C36.6687 34.3521 35.8395 33.9917 35.5249 33.0584C35.4166 32.7375 35.4166 32.3771 35.4166 31.6563V22.5104ZM14.5833 22.5104C14.5833 21.6021 14.5583 20.7875 13.8249 20.15C13.5583 19.9188 13.2041 19.7584 12.4978 19.4354C11.5624 19.0104 11.0958 18.7959 10.6312 18.7584C9.2416 18.6459 8.49368 19.5959 7.69368 20.5709C5.72701 22.9563 4.74368 24.15 4.38326 25.4667C4.09327 26.5257 4.09327 27.6431 4.38326 28.7021C4.90826 30.6209 6.5666 32.2313 7.7916 33.7209C8.56451 34.6584 9.3041 35.5146 10.6312 35.4084C11.0958 35.3709 11.5624 35.1584 12.4978 34.7313C13.2062 34.4104 13.5583 34.2479 13.8249 34.0167C14.5583 33.3792 14.5833 32.5646 14.5833 31.6584V22.5104Z" stroke="white" stroke-width="1.5" stroke-linecap="round" stroke-linejoin="round"/>
<path d="M10 18.3334C10 11.4292 16.5292 5.83337 24.5833 5.83337C32.6375 5.83337 39.1667 11.4292 39.1667 18.3334M39.1667 35V36.6667C39.1667 40.348 35.4375 43.3334 30.8333 43.3334H26.6667" stroke="white" stroke-width="1.5" stroke-linecap="round" stroke-linejoin="round"/>
</svg>
